<svg width="21" height="17" viewBox="0 0 21 17" fill="none" xmlns="http://www.w3.org/2000/svg">
<path fill-rule="evenodd" clip-rule="evenodd" d="M19.95 14.7H2.1V13.0305L7.35 7.7805L10.8045 11.235C10.9935 11.4345 11.256 11.55 11.55 11.55C11.844 11.55 12.1065 11.4345 12.2955 11.2455L19.6455 3.8955C19.8345 3.7065 19.95 3.444 19.95 3.15C19.95 2.5725 19.4775 2.1 18.9 2.1C18.606 2.1 18.3435 2.2155 18.1545 2.4045L11.55 9.0195L8.0955 5.5545C7.9065 5.3655 7.644 5.25 7.35 5.25C7.056 5.25 6.7935 5.3655 6.6045 5.5545L2.1 10.0695V1.05C2.1 0.4725 1.6275 0 1.05 0C0.4725 0 0 0.4725 0 1.05V15.75C0 15.897 0.0315 16.0335 0.084 16.1595C0.2415 16.5375 0.6195 16.8 1.05 16.8H19.95C20.5275 16.8 21 16.3275 21 15.75C21 15.1725 20.5275 14.7 19.95 14.7Z" fill="black"/>
</svg>
