<svg width="24" height="24" viewBox="0 0 24 24" fill="none" xmlns="http://www.w3.org/2000/svg">
<path d="M18.6667 5.33333C19.4667 5.33333 20 4.8 20 4V1.33333C20 0.666667 19.4667 0 18.6667 0C17.8667 0 17.3333 0.666667 17.3333 1.33333V4C17.3333 4.8 17.8667 5.33333 18.6667 5.33333ZM5.33333 5.33333C6.13333 5.33333 6.66667 4.8 6.66667 4V1.33333C6.66667 0.666667 6.13333 0 5.33333 0C4.53333 0 4 0.666667 4 1.33333V4C4 4.8 4.53333 5.33333 5.33333 5.33333ZM22.6667 2.66667H21.3333V4C21.3333 5.46667 20.1333 6.66667 18.6667 6.66667C17.2 6.66667 16 5.46667 16 4V2.66667H8V4C8 5.46667 6.8 6.66667 5.33333 6.66667C3.86667 6.66667 2.66667 5.46667 2.66667 4V2.66667H1.33333C0.666667 2.66667 0 3.33333 0 4V22.6667C0 23.3333 0.666667 24 1.33333 24H22.6667C23.3333 24 24 23.3333 24 22.6667V4C24 3.33333 23.3333 2.66667 22.6667 2.66667ZM8 21.3333H2.66667V16H8V21.3333ZM8 14.6667H2.66667V9.33333H8V14.6667ZM14.6667 21.3333H9.33333V16H14.6667V21.3333ZM14.6667 14.6667H9.33333V9.33333H14.6667V14.6667ZM21.3333 21.3333H16V16H21.3333V21.3333ZM21.3333 14.6667H16V9.33333H21.3333V14.6667Z" fill="#4A4B57"/>
</svg>
