<svg width="22" height="16" viewBox="0 0 22 16" fill="none" xmlns="http://www.w3.org/2000/svg">
<path fill-rule="evenodd" clip-rule="evenodd" d="M19.6274 11.9125H9.97532L9.27846 9.94376H18.5873C19.0449 9.94376 19.4194 9.65829 19.565 9.26454H19.5754L21.6556 3.35829H21.6452C21.6764 3.25985 21.7076 3.16141 21.7076 3.05313C21.7076 2.51172 21.2395 2.06876 20.6675 2.06876H6.51181L6.05417 0.769381H6.04377C5.89815 0.385475 5.52372 0.100006 5.06608 0.100006H1.94579C1.37374 0.100006 0.905701 0.542975 0.905701 1.08438C0.905701 1.62579 1.37374 2.06876 1.94579 2.06876H4.31721L7.78072 11.9125H6.10617C4.96207 11.9125 4.02598 12.7984 4.02598 13.8813C4.02598 14.9641 4.96207 15.85 6.10617 15.85C7.25027 15.85 8.18636 14.9641 8.18636 13.8813H17.5472C17.5472 14.9641 18.4833 15.85 19.6274 15.85C20.7715 15.85 21.7076 14.9641 21.7076 13.8813C21.7076 12.7984 20.7715 11.9125 19.6274 11.9125ZM7.19827 4.03751H19.2218L17.8384 7.97501H8.592L7.19827 4.03751Z" fill="black"/>
</svg>
