<svg width="21" height="21" viewBox="0 0 21 21" fill="none" xmlns="http://www.w3.org/2000/svg">
<path d="M0.429335 21H12.1707C12.2271 21.0001 12.283 20.9891 12.3351 20.9676C12.3873 20.9461 12.4347 20.9145 12.4746 20.8746C12.5145 20.8347 12.5461 20.7873 12.5676 20.7351C12.5892 20.683 12.6002 20.6271 12.6 20.5707V19.53H4.62933C4.20648 19.5299 3.80092 19.3621 3.5017 19.0633C3.20247 18.7645 3.03403 18.3592 3.03333 17.9363V5.271H0.429335C0.372912 5.27085 0.317016 5.28185 0.264859 5.30337C0.212702 5.3249 0.165313 5.35651 0.125416 5.39641C0.0855189 5.43631 0.0539001 5.4837 0.0323772 5.53586C0.0108543 5.58801 -0.000148421 5.64391 1.51193e-06 5.70033V20.5707C-0.000148112 20.6271 0.0108548 20.683 0.0323779 20.7351C0.0539009 20.7873 0.0855196 20.8347 0.125417 20.8746C0.165314 20.9145 0.212703 20.9461 0.264859 20.9676C0.317016 20.9891 0.372912 21.0001 0.429335 21V21Z" fill="black"/>
<path d="M8.82878 0H20.5713C20.6276 -6.12814e-07 20.6833 0.0110886 20.7354 0.0326346C20.7874 0.0541806 20.8346 0.0857613 20.8744 0.125574C20.9143 0.165386 20.9458 0.21265 20.9674 0.264668C20.9889 0.316685 21 0.372437 21 0.428741V15.2999C21 15.4136 20.9549 15.5226 20.8744 15.603C20.794 15.6834 20.685 15.7286 20.5713 15.7286H8.82878C8.77248 15.7286 8.71672 15.7175 8.66471 15.696C8.61269 15.6744 8.56542 15.6428 8.52561 15.603C8.48579 15.5632 8.45421 15.516 8.43266 15.4639C8.41111 15.4119 8.40002 15.3562 8.40002 15.2999V0.428755C8.40002 0.315042 8.4452 0.205986 8.5256 0.125579C8.60601 0.0451722 8.71507 0 8.82878 0V0Z" fill="black"/>
<path d="M4.20001 3.06366V17.9363C4.2001 17.9926 4.21129 18.0482 4.23293 18.1002C4.25456 18.1521 4.28623 18.1992 4.32611 18.2389C4.36599 18.2785 4.4133 18.31 4.46533 18.3313C4.51737 18.3527 4.5731 18.3635 4.62935 18.3633H16.3707C16.4269 18.3635 16.4826 18.3527 16.5347 18.3313C16.5867 18.31 16.634 18.2785 16.6739 18.2389C16.7138 18.1992 16.7455 18.1521 16.7671 18.1002C16.7887 18.0482 16.7999 17.9926 16.8 17.9363V16.8957H8.82933C8.40623 16.8951 8.00063 16.7267 7.70145 16.4275C7.40228 16.1284 7.23393 15.7228 7.23333 15.2997V2.63666H4.62933C4.57309 2.63645 4.51735 2.64733 4.46532 2.66869C4.41329 2.69004 4.36598 2.72145 4.3261 2.76111C4.28622 2.80077 4.25456 2.84791 4.23292 2.89983C4.21129 2.95174 4.2001 3.00742 4.20001 3.06366Z" fill="black"/>
</svg>
