<svg width="35" height="10" viewBox="0 0 35 10" fill="none" xmlns="http://www.w3.org/2000/svg">
<path d="M0.186734 0.887H6.99873L6.98573 2.785H2.56573V4.813H6.64773V6.711H2.56573V10H0.186734V0.887ZM8.08322 0.887H15.2722V2.785H10.4622V4.488H14.8042V6.373L10.4622 6.386V8.102H15.4022V10H8.08322V0.887ZM16.8557 0.887H24.0447V2.785H19.2347V4.488H23.5767V6.373L19.2347 6.386V8.102H24.1747V10H16.8557V0.887ZM29.5541 0.887C30.5075 0.887 31.3481 1.07767 32.0761 1.459C32.8128 1.84033 33.3848 2.37767 33.7921 3.071C34.1995 3.75567 34.4031 4.54433 34.4031 5.437C34.4031 6.32967 34.1951 7.12267 33.7791 7.816C33.3718 8.50933 32.7911 9.04667 32.0371 9.428C31.2918 9.80933 30.4338 10 29.4631 10H25.6281V0.887H29.5541ZM29.6191 8.076C30.0785 8.076 30.4858 7.96767 30.8411 7.751C31.1965 7.53433 31.4738 7.22667 31.6731 6.828C31.8725 6.42933 31.9721 5.97433 31.9721 5.463C31.9721 4.943 31.8638 4.48367 31.6471 4.085C31.4391 3.68633 31.1488 3.37867 30.7761 3.162C30.4035 2.93667 29.9788 2.824 29.5021 2.824H28.0071V8.076H29.6191Z" fill="black"/>
</svg>
