<svg width="26" height="33" viewBox="0 0 26 33" fill="none" xmlns="http://www.w3.org/2000/svg">
<g clip-path="url(#clip0_1_9)">
<path fill-rule="evenodd" clip-rule="evenodd" d="M16.4767 8.16279C15.7257 8.16279 15.1162 8.77228 15.1162 9.52326C15.1162 10.2742 15.7257 10.8837 16.4767 10.8837C17.2277 10.8837 17.8371 10.2742 17.8371 9.52326C17.8371 8.77228 17.2277 8.16279 16.4767 8.16279ZM16.7488 5.44186C16.4495 5.44186 16.2046 5.68674 16.2046 5.98605C16.2046 6.28535 16.4495 6.53023 16.7488 6.53023C18.2507 6.53023 19.4697 7.74921 19.4697 9.25116C19.4697 9.55047 19.7146 9.79535 20.0139 9.79535C20.3132 9.79535 20.5581 9.55047 20.5581 9.25116C20.5581 7.14516 18.8548 5.44186 16.7488 5.44186ZM16.7488 0C16.4495 0 16.2046 0.244884 16.2046 0.544186C16.2046 0.843488 16.4495 1.08837 16.7488 1.08837C21.2546 1.08837 24.9116 4.7453 24.9116 9.25116C24.9116 9.55047 25.1564 9.79535 25.4557 9.79535C25.755 9.79535 25.9999 9.55047 25.9999 9.25116C25.9999 4.14126 21.8587 0 16.7488 0ZM16.7488 2.72093C16.4495 2.72093 16.2046 2.96581 16.2046 3.26512C16.2046 3.56442 16.4495 3.8093 16.7488 3.8093C19.7527 3.8093 22.1906 6.24726 22.1906 9.25116C22.1906 9.55047 22.4355 9.79535 22.7348 9.79535C23.0341 9.79535 23.279 9.55047 23.279 9.25116C23.279 5.64321 20.3567 2.72093 16.7488 2.72093Z" fill="#4A4B57"/>
</g>
<path d="M1.25272 14.1986H3.92679V24.4419H1.25272V14.1986ZM10.4196 14.1986C11.725 14.1986 12.7381 14.5152 13.459 15.1484C14.1799 15.7719 14.5403 16.6535 14.5403 17.7933C14.5403 19.0012 14.1799 19.9413 13.459 20.6134C12.7381 21.2759 11.725 21.6071 10.4196 21.6071H8.59305V24.4419H5.91898V14.1986H10.4196ZM10.2881 19.4737C10.8336 19.4737 11.2525 19.3373 11.5448 19.0645C11.8467 18.7918 11.9977 18.3972 11.9977 17.8809C11.9977 17.3841 11.8467 17.0042 11.5448 16.7412C11.2525 16.4684 10.8336 16.332 10.2881 16.332H8.59305V19.4737H10.2881Z" fill="black"/>
<defs>
<clipPath id="clip0_1_9">
<rect width="10.8837" height="10.8837" fill="white" transform="translate(15.1162)"/>
</clipPath>
</defs>
</svg>
