<svg width="102" height="102" viewBox="0 0 102 102" fill="none" xmlns="http://www.w3.org/2000/svg">
<path d="M65.5931 65.5607L51.0216 50.9893L36.4502 65.5607" stroke="#828282" stroke-width="9.36735" stroke-linecap="round" stroke-linejoin="round"/>
<path d="M51.0215 50.9893V83.775" stroke="#828282" stroke-width="9.36735" stroke-linecap="round" stroke-linejoin="round"/>
<path d="M81.5831 74.2685C85.1361 72.3315 87.9429 69.2664 89.5605 65.5571C91.1781 61.8477 91.5143 57.7053 90.5162 53.7836C89.518 49.8619 87.2423 46.3843 84.0481 43.8996C80.854 41.4149 76.9234 40.0647 72.8767 40.0621H68.2867C67.1841 35.7972 65.1289 31.8377 62.2758 28.4814C59.4227 25.1251 55.8458 22.4592 51.8141 20.6843C47.7823 18.9093 43.4007 18.0714 38.9986 18.2336C34.5964 18.3958 30.2883 19.5539 26.3981 21.6207C22.508 23.6875 19.137 26.6094 16.5385 30.1665C13.9401 33.7237 12.1819 37.8237 11.3961 42.1581C10.6103 46.4926 10.8174 50.9488 12.0017 55.1918C13.186 59.4347 15.3168 63.354 18.2338 66.6549" stroke="#828282" stroke-width="9.36735" stroke-linecap="round" stroke-linejoin="round"/>
<path d="M65.5931 65.5607L51.0216 50.9893L36.4502 65.5607" stroke="#828282" stroke-width="9.36735" stroke-linecap="round" stroke-linejoin="round"/>
</svg>
