<svg width="28" height="28" viewBox="0 0 28 28" fill="none" xmlns="http://www.w3.org/2000/svg">
<path d="M18.0054 17.997L14.0054 13.997L10.0054 17.997" stroke="#000000" stroke-width="2.57143" stroke-linecap="round" stroke-linejoin="round"/>
<path d="M14.0054 13.997V22.997" stroke="#000000" stroke-width="2.57143" stroke-linecap="round" stroke-linejoin="round"/>
<path d="M22.3951 20.3874C23.3704 19.8557 24.1409 19.0143 24.585 17.996C25.029 16.9778 25.1213 15.8407 24.8473 14.7641C24.5733 13.6876 23.9486 12.7329 23.0718 12.0509C22.1949 11.3688 21.116 10.9982 20.0051 10.9974H18.7451C18.4424 9.82666 17.8782 8.73976 17.095 7.81841C16.3118 6.89707 15.3299 6.16527 14.2232 5.67803C13.1164 5.19078 11.9136 4.96078 10.7052 5.0053C9.49677 5.04983 8.31415 5.36772 7.24626 5.93509C6.17837 6.50245 5.253 7.30452 4.53971 8.281C3.82642 9.25748 3.34378 10.383 3.12807 11.5728C2.91236 12.7627 2.96919 13.986 3.2943 15.1507C3.61941 16.3154 4.20433 17.3913 5.00509 18.2974" stroke="#000000" stroke-width="2.57143" stroke-linecap="round" stroke-linejoin="round"/>
<path d="M18.0054 17.997L14.0054 13.997L10.0054 17.997" stroke="#000000" stroke-width="2.57143" stroke-linecap="round" stroke-linejoin="round"/>
</svg>
