<svg width="21" height="14" viewBox="0 0 21 14" fill="none" xmlns="http://www.w3.org/2000/svg">
<path d="M16.8918 4.91867C15.9141 2.33994 13.4229 0.506226 10.5048 0.506226C7.58663 0.506226 5.09542 2.33781 4.11773 4.91653C2.28828 5.39684 0.937012 7.06405 0.937012 9.04506C0.937012 11.4039 2.84758 13.3145 5.20429 13.3145H6.06031C6.15424 13.3145 6.23109 13.2376 6.23109 13.1437V11.8629C6.23109 11.7689 6.15424 11.6921 6.06031 11.6921H5.20429C4.4849 11.6921 3.80819 11.406 3.3044 10.8873C2.80275 10.3707 2.53591 9.6748 2.55939 8.95327C2.5786 8.3897 2.77073 7.86029 3.11868 7.41414C3.47518 6.95945 3.9747 6.62857 4.52973 6.48127L5.33878 6.26994L5.6355 5.48863C5.81909 5.00192 6.07525 4.54723 6.39759 4.13523C6.71582 3.72688 7.09277 3.36791 7.51618 3.07001C8.39355 2.45308 9.42675 2.12647 10.5048 2.12647C11.5828 2.12647 12.616 2.45308 13.4934 3.07001C13.9182 3.36887 14.2939 3.7275 14.6119 4.13523C14.9343 4.54723 15.1905 5.00406 15.374 5.48863L15.6686 6.2678L16.4756 6.48127C17.6326 6.79294 18.4416 7.84535 18.4416 9.04506C18.4416 9.75165 18.1662 10.4177 17.6667 10.9172C17.4217 11.1636 17.1303 11.359 16.8093 11.492C16.4884 11.625 16.1442 11.693 15.7967 11.6921H14.9407C14.8468 11.6921 14.7699 11.7689 14.7699 11.8629V13.1437C14.7699 13.2376 14.8468 13.3145 14.9407 13.3145H15.7967C18.1534 13.3145 20.064 11.4039 20.064 9.04506C20.064 7.06618 18.717 5.40111 16.8918 4.91867Z" fill="#6097B8"/>
</svg>
